<svg width="130" height="36" viewBox="0 0 130 36" fill="none" xmlns="http://www.w3.org/2000/svg">
<path d="M9.58642 10.4601V21.0547H14.8395C15.5594 21.0547 16.2367 20.9194 16.8712 20.6486C17.5057 20.3656 18.0609 19.9842 18.5368 19.5043C19.0127 19.0244 19.3849 18.4645 19.6533 17.8247C19.934 17.1725 20.0743 16.4834 20.0743 15.7574C20.0743 15.0314 19.934 14.3485 19.6533 13.7086C19.3849 13.0565 19.0127 12.4904 18.5368 12.0105C18.0609 11.5307 17.5057 11.1554 16.8712 10.8846C16.2367 10.6016 15.5594 10.4601 14.8395 10.4601H9.58642ZM9.58642 31.6308H4.33334V5.16282H14.8395C15.8035 5.16282 16.7309 5.29202 17.6216 5.55043C18.5124 5.79653 19.3421 6.15337 20.1109 6.62096C20.8918 7.07625 21.5996 7.62997 22.2341 8.28214C22.8808 8.92199 23.4299 9.63568 23.8814 10.4232C24.3451 11.2107 24.6989 12.0536 24.943 12.9519C25.1992 13.8501 25.3274 14.7853 25.3274 15.7574C25.3274 17.2094 25.0528 18.5814 24.5037 19.8734C23.9546 21.1532 23.2042 22.2729 22.2524 23.2327C21.3006 24.1925 20.1841 24.9492 18.9029 25.503C17.6338 26.0567 16.2794 26.3336 14.8395 26.3336H9.58642V31.6308Z" fill="#F8D171"/>
<path d="M32.8867 31.6308H27.8898V11.8629H29.0979L30.7452 14.207C31.5505 13.4687 32.4657 12.9027 33.4907 12.5089C34.5157 12.1028 35.5773 11.8998 36.6755 11.8998H41.0866V16.9202H36.6755C36.1508 16.9202 35.6566 17.0187 35.1929 17.2156C34.7292 17.4124 34.3265 17.6831 33.9849 18.0277C33.6432 18.3722 33.3748 18.7783 33.1795 19.2459C32.9843 19.7135 32.8867 20.2118 32.8867 20.7409V31.6308Z" fill="#F8D171"/>
<path d="M61.9891 21.5715C61.9891 23.0481 61.7268 24.4263 61.2021 25.706C60.6774 26.9734 59.9635 28.0747 59.0606 29.0099C58.1576 29.9328 57.096 30.6649 55.8758 31.2063C54.6677 31.7354 53.3682 32 51.9771 32C50.5983 32 49.2987 31.7354 48.0785 31.2063C46.8705 30.6649 45.8089 29.9328 44.8937 29.0099C43.9907 28.0747 43.2769 26.9734 42.7522 25.706C42.2275 24.4263 41.9652 23.0481 41.9652 21.5715C41.9652 20.0703 42.2275 18.6798 42.7522 17.4001C43.2769 16.1204 43.9907 15.0191 44.8937 14.0962C45.8089 13.1611 46.8705 12.4289 48.0785 11.8998C49.2987 11.3707 50.5983 11.1061 51.9771 11.1061C53.3682 11.1061 54.6677 11.3584 55.8758 11.8629C57.096 12.3551 58.1576 13.0626 59.0606 13.9855C59.9635 14.8961 60.6774 15.9974 61.2021 17.2894C61.7268 18.5691 61.9891 19.9965 61.9891 21.5715ZM56.9557 21.5715C56.9557 20.7594 56.8214 20.0272 56.553 19.3751C56.2967 18.7106 55.9429 18.1446 55.4914 17.677C55.0399 17.1971 54.5091 16.8341 53.899 16.588C53.3011 16.3296 52.6605 16.2004 51.9771 16.2004C51.2938 16.2004 50.6471 16.3296 50.037 16.588C49.4391 16.8341 48.9144 17.1971 48.4629 17.677C48.0236 18.1446 47.6758 18.7106 47.4196 19.3751C47.1633 20.0272 47.0352 20.7594 47.0352 21.5715C47.0352 22.3344 47.1633 23.042 47.4196 23.6941C47.6758 24.3463 48.0236 24.9123 48.4629 25.3922C48.9144 25.8721 49.4391 26.2536 50.037 26.5366C50.6471 26.8073 51.2938 26.9426 51.9771 26.9426C52.6605 26.9426 53.3011 26.8134 53.899 26.555C54.5091 26.2966 55.0399 25.9336 55.4914 25.4661C55.9429 24.9985 56.2967 24.4324 56.553 23.768C56.8214 23.1035 56.9557 22.3713 56.9557 21.5715Z" fill="#F8D171"/>
<path d="M74.4354 31.6308C73.2274 31.6308 72.0926 31.4032 71.031 30.9479C69.9694 30.4803 69.0359 29.8466 68.2306 29.0468C67.4374 28.2347 66.809 27.2933 66.3453 26.2228C65.8938 25.1523 65.6681 24.0079 65.6681 22.7897V16.9202H63.2337V11.8998H65.6681V4H70.6466V11.8998H78.2242V16.9202H70.6466V22.7897C70.6466 23.3188 70.7442 23.8172 70.9395 24.2848C71.1347 24.7401 71.4032 25.14 71.7448 25.4845C72.0865 25.829 72.4892 26.1059 72.9528 26.3151C73.4165 26.512 73.9107 26.6104 74.4354 26.6104H78.2242V31.6308H74.4354Z" fill="#F8D171"/>
<path d="M88.8402 26.795C89.0354 26.8565 89.2307 26.8996 89.4259 26.9242C89.6212 26.9365 89.8164 26.9426 90.0116 26.9426C90.4997 26.9426 90.9695 26.875 91.421 26.7396C91.8725 26.6043 92.2935 26.4135 92.6839 26.1674C93.0866 25.909 93.4405 25.6014 93.7455 25.2446C94.0628 24.8754 94.319 24.4693 94.5143 24.0264L98.175 27.7363C97.7113 28.4008 97.1744 28.9976 96.5643 29.5267C95.9663 30.0558 95.3135 30.5049 94.6058 30.8741C93.9103 31.2432 93.172 31.5201 92.3911 31.7047C91.6223 31.9016 90.8292 32 90.0116 32C88.6328 32 87.3332 31.7416 86.113 31.2248C84.905 30.708 83.8434 29.9881 82.9282 29.0653C82.0252 28.1424 81.3114 27.0472 80.7867 25.7798C80.262 24.5001 79.9997 23.0973 79.9997 21.5715C79.9997 20.0088 80.262 18.5814 80.7867 17.2894C81.3114 15.9974 82.0252 14.8961 82.9282 13.9855C83.8434 13.0749 84.905 12.3674 86.113 11.8629C87.3332 11.3584 88.6328 11.1061 90.0116 11.1061C90.8292 11.1061 91.6284 11.2046 92.4094 11.4014C93.1903 11.5983 93.9286 11.8813 94.6241 12.2505C95.3318 12.6196 95.9907 13.0749 96.6009 13.6163C97.211 14.1455 97.7479 14.7423 98.2116 15.4067L88.8402 26.795ZM91.4027 16.4034C91.1708 16.3173 90.939 16.2619 90.7072 16.2373C90.4875 16.2127 90.2557 16.2004 90.0116 16.2004C89.3283 16.2004 88.6816 16.3296 88.0715 16.588C87.4736 16.8341 86.9489 17.1909 86.4974 17.6585C86.0581 18.1261 85.7103 18.6922 85.4541 19.3566C85.1978 20.0088 85.0697 20.7471 85.0697 21.5715C85.0697 21.7561 85.0758 21.9653 85.088 22.1991C85.1124 22.4329 85.1429 22.6728 85.1795 22.9189C85.2283 23.1527 85.2832 23.3804 85.3443 23.6018C85.4053 23.8233 85.4846 24.0202 85.5822 24.1925L91.4027 16.4034Z" fill="#F8D171"/>
<path d="M125.667 31.6308H120.688V19.0798C120.688 18.7352 120.621 18.4091 120.487 18.1015C120.365 17.7939 120.188 17.5232 119.956 17.2894C119.724 17.0556 119.456 16.8772 119.151 16.7541C118.846 16.6188 118.522 16.5511 118.181 16.5511C117.839 16.5511 117.516 16.6188 117.211 16.7541C116.918 16.8772 116.655 17.0556 116.423 17.2894C116.204 17.5232 116.027 17.7939 115.893 18.1015C115.771 18.4091 115.71 18.7352 115.71 19.0798V31.6308H110.713V19.0798C110.713 18.7352 110.646 18.4091 110.511 18.1015C110.389 17.7939 110.212 17.5232 109.981 17.2894C109.749 17.0556 109.48 16.8772 109.175 16.7541C108.87 16.6188 108.547 16.5511 108.205 16.5511C107.864 16.5511 107.54 16.6188 107.235 16.7541C106.942 16.8772 106.68 17.0556 106.448 17.2894C106.228 17.5232 106.052 17.7939 105.917 18.1015C105.795 18.4091 105.734 18.7352 105.734 19.0798V31.6308H100.737V11.8629H101.945L103.3 13.3764C103.995 12.7858 104.758 12.3305 105.588 12.0105C106.43 11.6783 107.302 11.5122 108.205 11.5122C109.12 11.5122 110.011 11.6845 110.878 12.029C111.756 12.3735 112.525 12.9703 113.184 13.8194C113.489 13.401 113.837 13.0442 114.227 12.7488C114.618 12.4535 115.026 12.2136 115.453 12.029C115.893 11.8444 116.344 11.7152 116.808 11.6414C117.272 11.5553 117.729 11.5122 118.181 11.5122C119.218 11.5122 120.188 11.7091 121.091 12.1028C122.006 12.4966 122.799 13.038 123.47 13.7271C124.154 14.4039 124.691 15.2037 125.081 16.1266C125.471 17.0494 125.667 18.0338 125.667 19.0798V31.6308Z" fill="#F8D171"/>
</svg>
