<svg width="90" height="16" viewBox="0 0 90 16" fill="none" xmlns="http://www.w3.org/2000/svg">
<path d="M4 12L11.5017 4.68129C11.8901 4.30233 12.5099 4.30233 12.8983 4.68129L19.7017 11.3187C20.0901 11.6977 20.7099 11.6977 21.0983 11.3187L27.9017 4.68129C28.2901 4.30233 28.9099 4.30233 29.2983 4.68129L36.1017 11.3187C36.4901 11.6977 37.1099 11.6977 37.4983 11.3187L44.3017 4.68129C44.6901 4.30233 45.3099 4.30233 45.6983 4.68129L52.5017 11.3187C52.8901 11.6977 53.5099 11.6977 53.8983 11.3187L60.7017 4.68129C61.0901 4.30233 61.7099 4.30233 62.0983 4.68129L68.9017 11.3187C69.2901 11.6977 69.9099 11.6977 70.2983 11.3187L77.1017 4.68129C77.4901 4.30233 78.1099 4.30233 78.4983 4.68129L86 12" stroke="#D3D3D3" stroke-width="2.5" stroke-linecap="round"/>
</svg>
